<svg width="62" height="60" viewBox="0 0 62 60" fill="none" xmlns="http://www.w3.org/2000/svg">
<path d="M49.0996 38.5287C51.1996 37.8287 55.2996 33.0287 53.8996 29.0287C53.6996 28.4287 52.9996 28.0287 52.2996 28.2287C51.5996 28.4287 51.2996 29.1287 51.4996 29.8287C52.3996 32.3287 49.2996 35.8287 48.3996 36.1287C47.7996 36.3287 47.3996 37.0287 47.5996 37.7287C47.7996 38.3287 48.4996 38.7287 49.0996 38.5287Z" fill="black"/>
<path d="M61.4996 54.1287C61.2996 53.4287 60.5996 53.1287 59.8996 53.3287L54.8996 55.0287L50.8996 43.1287C56.7996 40.5287 59.6996 33.8287 57.6996 27.7287L53.9996 17.0287C53.7996 16.3287 53.0996 16.0287 52.3996 16.2287L31.2996 23.3287L10.0996 16.2287C9.49959 16.0287 8.69959 16.3287 8.39959 17.0287L6.39959 22.9287L4.79959 27.6287C2.69959 33.9287 5.69959 40.5287 11.4996 43.1287L7.39959 55.0287L2.39959 53.3287C1.79959 53.1287 0.999595 53.4287 0.799595 54.1287C0.599595 54.8287 0.899595 55.5287 1.59959 55.7287L13.8996 59.8287C14.5996 60.0287 15.2996 59.7287 15.4996 59.0287C15.6996 58.3287 15.3996 57.6287 14.6996 57.4287L9.69959 55.8287L13.6996 43.9287C15.5996 44.4287 17.5996 44.3287 19.5996 43.9287V47.4287C19.5996 50.2287 21.7996 52.4287 24.6996 52.4287C27.5996 52.4287 29.7996 50.2287 29.7996 47.4287C29.7996 46.0287 30.8996 44.9287 32.2996 44.9287C33.6996 44.9287 34.7996 46.0287 34.7996 47.4287V52.4287C34.7996 55.2287 36.9996 57.4287 39.8996 57.4287C42.6996 57.4287 44.9996 55.2287 44.9996 52.4287V44.2287C46.0996 44.2287 47.1996 44.1287 48.2996 43.9287L52.2996 55.8287L47.2996 57.5287C46.5996 57.7287 46.2996 58.4287 46.4996 59.1287C46.6996 59.6287 47.1996 59.9287 47.6996 59.9287C48.0996 59.9287 47.4996 60.0287 60.3996 55.7287C61.2996 55.5287 61.6996 54.8287 61.4996 54.1287ZM51.7996 19.1287L52.9996 22.6287L33.8996 29.0287L32.6996 25.5287L51.7996 19.1287ZM10.3996 19.1287L29.4996 25.5287L28.2996 29.0287L9.19959 22.6287L10.3996 19.1287ZM13.4996 41.2287C8.19959 39.4287 5.39959 33.7287 7.09959 28.5287L8.29959 24.9287L27.3996 31.3287L26.1996 34.8287C24.4996 40.2287 18.7996 43.0287 13.4996 41.2287ZM42.3996 52.4287C42.3996 53.8287 41.2996 54.9287 39.8996 54.9287C38.4996 54.9287 37.3996 53.8287 37.3996 52.4287V47.4287C37.3996 44.6287 35.1996 42.4287 32.2996 42.4287C29.3996 42.4287 27.1996 44.6287 27.1996 47.4287C27.1996 48.8287 26.0996 49.9287 24.6996 49.9287C23.2996 49.9287 22.1996 48.8287 22.1996 47.4287V43.0287C25.0996 41.6287 27.5996 39.0287 28.5996 35.8287L30.1996 31.1287L30.9996 28.7287L33.3996 35.8287C34.7996 40.0287 38.2996 42.9287 42.2996 43.9287L42.3996 52.4287ZM35.9996 35.0287L34.7996 31.5287L53.8996 25.1287L55.0996 28.7287C56.8996 33.9287 54.0996 39.6287 48.6996 41.4287C43.3996 43.0287 37.7996 40.2287 35.9996 35.0287Z" fill="black"/>
<path d="M13.8996 36.1287C12.9996 35.8287 9.8996 32.3287 10.7996 29.8287C10.9996 29.1287 10.6996 28.4287 9.99959 28.2287C9.39959 28.0287 8.49959 28.3287 8.29959 29.0287C6.89959 33.0287 10.8996 37.8287 13.0996 38.5287C13.7996 38.7287 14.4996 38.4287 14.6996 37.7287C14.8996 37.0287 14.5996 36.3287 13.8996 36.1287Z" fill="black"/>
<path d="M28.6996 18.4287C28.4996 19.1287 28.8996 19.8287 29.5996 19.9287C30.2996 20.1287 30.9996 19.7287 31.0996 19.0287C33.3996 10.4287 24.7996 0.828725 24.4996 0.428725C23.9996 -0.0712746 23.1996 -0.171275 22.6996 0.328725C22.1996 0.828725 22.0996 1.62873 22.5996 2.12873C22.6996 2.12873 30.5996 11.1287 28.6996 18.4287Z" fill="black"/>
<path d="M33.5996 18.8287C33.6996 19.5287 34.2996 20.0287 34.8996 19.9287C35.5996 19.8287 36.0996 19.2287 35.9996 18.6287C35.6996 15.7287 36.7996 13.1287 38.9996 11.0287C40.8996 9.42873 42.7996 8.62873 42.7996 8.62873C43.3996 8.32873 43.7996 7.62873 43.4996 7.02873C43.1996 6.42873 42.4996 6.02873 41.8996 6.32873C41.7996 6.32873 39.5996 7.22873 37.3996 9.12873C34.5996 11.7287 33.2996 15.1287 33.5996 18.8287Z" fill="black"/>
<path d="M23.4996 17.4287C25.5996 17.4287 27.2996 15.7287 27.2996 13.6287C27.2996 11.5287 25.5996 9.82873 23.4996 9.82873C21.3996 9.82873 19.6996 11.5287 19.6996 13.6287C19.7996 15.8287 21.3996 17.4287 23.4996 17.4287ZM23.4996 12.4287C24.1996 12.4287 24.7996 13.0287 24.7996 13.7287C24.7996 14.4287 24.1996 15.0287 23.4996 15.0287C22.7996 15.0287 22.1996 14.4287 22.1996 13.7287C22.2996 13.0287 22.7996 12.4287 23.4996 12.4287Z" fill="black"/>
<path d="M39.8996 13.7287C39.8996 15.8287 41.5996 17.5287 43.6996 17.5287C45.7996 17.5287 47.4996 15.8287 47.4996 13.7287C47.4996 11.6287 45.8996 9.92873 43.7996 9.92873C41.5996 9.92873 39.8996 11.6287 39.8996 13.7287ZM44.9996 13.7287C44.9996 14.4287 44.3996 15.0287 43.6996 15.0287C42.9996 15.0287 42.3996 14.4287 42.3996 13.7287C42.3996 13.0287 42.9996 12.4287 43.6996 12.4287C44.3996 12.4287 44.9996 13.0287 44.9996 13.7287Z" fill="black"/>
<path d="M33.5996 9.92873C35.6996 9.92873 37.3996 8.22873 37.3996 6.12873C37.3996 4.02873 35.6996 2.32873 33.5996 2.32873C31.4996 2.32873 29.7996 4.02873 29.7996 6.12873C29.7996 8.22873 31.4996 9.92873 33.5996 9.92873ZM33.5996 4.92873C34.2996 4.92873 34.8996 5.52873 34.8996 6.22873C34.8996 6.92873 34.2996 7.52873 33.5996 7.52873C32.8996 7.52873 32.2996 6.92873 32.2996 6.22873C32.2996 5.52873 32.8996 4.92873 33.5996 4.92873Z" fill="black"/>
<path d="M14.7996 12.9287C15.0996 13.5287 15.7996 13.9287 16.3996 13.6287C16.9996 13.3287 17.2996 12.6287 17.0996 12.0287C15.4996 8.02873 12.3996 7.52873 12.2996 7.52873L11.9996 10.0287C11.9996 9.92873 13.6996 10.3287 14.7996 12.9287Z" fill="black"/>
<path d="M50.7996 13.6287C51.3996 13.9287 52.1996 13.6287 52.3996 12.9287C53.4996 10.3287 55.0996 9.92873 55.1996 9.92873L54.7996 7.42873C54.6996 7.42873 51.6996 7.92873 49.9996 11.9287C49.8996 12.6287 50.1996 13.3287 50.7996 13.6287Z" fill="black"/>
</svg>
